<svg width="17.000000" height="17.000000" viewBox="0 0 17 17" fill="none" xmlns="http://www.w3.org/2000/svg" xmlns:xlink="http://www.w3.org/1999/xlink">
	<desc>
			Created with Pixso.
	</desc>
	<defs/>
	<mask id="mask_15_8" fill="white">
		<path id="color" d="M7.5 0C11.6421 0 15 3.35786 15 7.5C15 9.21014 14.4277 10.7866 13.4639 12.0483L16.707 15.2929C17.0977 15.6834 17.0977 16.3166 16.707 16.7071C16.3467 17.0676 15.7793 17.0953 15.3872 16.7903L15.293 16.7071L12.0483 13.464C10.7866 14.4276 9.20996 15 7.5 15C3.35791 15 0 11.6421 0 7.5C0 3.35786 3.35791 0 7.5 0ZM2 7.5C2 4.46243 4.4624 2 7.5 2C10.5376 2 13 4.46243 13 7.5C13 8.85114 12.5127 10.0885 11.7041 11.0446C11.5537 11.091 11.4121 11.1738 11.293 11.2929C11.1738 11.412 11.0908 11.5536 11.0459 11.7045C10.0884 12.5128 8.85107 13 7.5 13C4.4624 13 2 10.5376 2 7.5Z" clip-rule="evenodd" fill="" fill-opacity="1.000000" fill-rule="evenodd"/>
	</mask>
	<path id="color" d="M7.5 0C11.6421 0 15 3.35786 15 7.5C15 9.21014 14.4277 10.7866 13.4639 12.0483L16.707 15.2929C17.0977 15.6834 17.0977 16.3166 16.707 16.7071C16.3467 17.0676 15.7793 17.0953 15.3872 16.7903L15.293 16.7071L12.0483 13.464C10.7866 14.4276 9.20996 15 7.5 15C3.35791 15 0 11.6421 0 7.5C0 3.35786 3.35791 0 7.5 0ZM2 7.5C2 4.46243 4.4624 2 7.5 2C10.5376 2 13 4.46243 13 7.5C13 8.85114 12.5127 10.0885 11.7041 11.0446C11.5537 11.091 11.4121 11.1738 11.293 11.2929C11.1738 11.412 11.0908 11.5536 11.0459 11.7045C10.0884 12.5128 8.85107 13 7.5 13C4.4624 13 2 10.5376 2 7.5Z" clip-rule="evenodd" fill="#7E84A3" fill-opacity="1.000000" fill-rule="evenodd" mask="url(#mask_15_8)"/>
	<path id="color" d="" fill="#979797" fill-opacity="0.000000" fill-rule="nonzero"/>
</svg>
